<svg xmlns="http://www.w3.org/2000/svg" viewBox="0 0 36 30.61"><defs><style>.cls-1{fill:#33485f;}</style></defs><title>アセット 3</title><g id="レイヤー_2" data-name="レイヤー 2"><g id="レイヤー_1-2" data-name="レイヤー 1"><path class="cls-1" d="M31.52,4.48A15.34,15.34,0,0,0,11.19,3.3l2.44,2.44a11.93,11.93,0,1,1-4.81,9L11.63,18a1.37,1.37,0,0,0,2.14,0,2,2,0,0,0,0-2.48L8.23,8.91A1.39,1.39,0,0,0,7.1,8.41,1.39,1.39,0,0,0,6,8.91L.44,15.49A2,2,0,0,0,.44,18a1.37,1.37,0,0,0,2.14,0l2.84-3.3A15.3,15.3,0,1,0,31.52,4.48ZM7.1,12.71l.4.47-.43-.43Z"/></g></g></svg>