<svg xmlns="http://www.w3.org/2000/svg" viewBox="0 0 78.13 28.96"><defs><style>.cls-1{fill:#fff;}</style></defs><title>アセット 4</title><g id="レイヤー_2" data-name="レイヤー 2"><g id="レイヤー_1-2" data-name="レイヤー 1"><circle class="cls-1" cx="11.61" cy="6.7" r="6.7"/><path class="cls-1" d="M0,29c0-8,5.2-11.61,11.61-11.61S23.23,21,23.23,29Z"/><circle class="cls-1" cx="66.51" cy="6.7" r="6.7"/><path class="cls-1" d="M54.9,29c0-8,5.2-11.61,11.61-11.61S78.13,21,78.13,29Z"/><path class="cls-1" d="M47.91,13H30.71l4.6-4.89a1.81,1.81,0,0,0,0-2.45A1.63,1.63,0,0,0,33,5.55l-7.37,7.34h0a1.51,1.51,0,0,0-.2.23l-.06.1a1.6,1.6,0,0,0-.09.16s0,.09,0,.14a1.56,1.56,0,0,0,0,.16,1.62,1.62,0,0,0,0,.25s0,0,0,.07,0,0,0,.07a1.58,1.58,0,0,0,0,.24,1.56,1.56,0,0,0,0,.17s0,.09,0,.14a1.55,1.55,0,0,0,.09.18l.05.1a1.61,1.61,0,0,0,.21.25L33,22.52a1.63,1.63,0,0,0,2.3,0,2.06,2.06,0,0,0,0-2.63L30.71,15h17.2c.9,0,1.63-.1,1.63-1S48.81,13,47.91,13Z"/><path class="cls-1" d="M30.21,15H47.42l-4.6,4.93a1.83,1.83,0,0,0,0,2.46,1.63,1.63,0,0,0,2.3.08l7.37-7.33h0a1.5,1.5,0,0,0,.2-.23l.06-.1a1.59,1.59,0,0,0,.09-.16s0-.09,0-.14a1.56,1.56,0,0,0,0-.16,1.62,1.62,0,0,0,0-.25s0,0,0-.07,0,0,0-.07a1.58,1.58,0,0,0,0-.24,1.56,1.56,0,0,0,0-.17s0-.09,0-.14a1.55,1.55,0,0,0-.09-.18l-.05-.1a1.61,1.61,0,0,0-.21-.25L45.12,5.48a1.63,1.63,0,0,0-2.3,0,2,2,0,0,0,0,2.59L47.42,13H30.21c-.9,0-1.63.1-1.63,1S29.31,15,30.21,15Z"/></g></g></svg>