<svg xmlns="http://www.w3.org/2000/svg" viewBox="0 0 184 219.79"><defs><style>.cls-1{fill:#fff;}.cls-2,.cls-3,.cls-4,.cls-5{fill:none;stroke-linecap:round;stroke-linejoin:round;}.cls-2,.cls-3,.cls-4{stroke:#fff;}.cls-2{stroke-width:14px;}.cls-3{stroke-width:8px;}.cls-4{stroke-width:5.67px;}.cls-5{stroke:#2c79de;stroke-width:14.17px;}</style></defs><title>アセット 2</title><g id="レイヤー_2" data-name="レイヤー 2"><g id="レイヤー_1-2" data-name="レイヤー 1"><path class="cls-1" d="M6.14,147.49a7,7,0,0,1,7,7,27.51,27.51,0,1,0,55,0,7.17,7.17,0,0,1,7.2-7L178,203.66v9.13L26.65,186.92,4.73,161.06Z"/><path class="cls-2" d="M7,7H177V212.79L40.78,189C21.73,189,7,173.51,7,154.47Z"/><line class="cls-2" x1="88" y1="59" x2="136" y2="59"/><line class="cls-2" x1="88" y1="103" x2="136" y2="103"/><rect class="cls-3" x="40" y="44" width="26" height="28"/><rect class="cls-3" x="40" y="90" width="26" height="28"/><polyline class="cls-4" points="43.18 42.77 53.9 58.85 76.22 30.27"/><polyline class="cls-5" points="43.18 90.43 53.9 106.5 76.22 77.93"/><polyline class="cls-4" points="43.18 90.43 53.9 106.5 76.22 77.93"/></g></g></svg>