<svg xmlns="http://www.w3.org/2000/svg" viewBox="0 0 142 131.34"><defs><style>.cls-1{fill:#fff;}</style></defs><title>アセット 3</title><g id="レイヤー_2" data-name="レイヤー 2"><g id="レイヤー_1-2" data-name="レイヤー 1"><g id="calendar"><path class="cls-1" d="M129.82,11.34H110V4.08a4,4,0,1,0-8,0v7.26H76V4.08C76,1.82,73.44,0,71,0s-5,1.82-5,4.08v7.26H40V4.08a4,4,0,1,0-8,0v7.26H11.88A12.19,12.19,0,0,0,0,23.11v96.53a12.12,12.12,0,0,0,11.88,11.7H129.82c6.51,0,12.18-5.69,12.18-11.7V23.11C142,17.1,136.33,11.34,129.82,11.34ZM132,119.64c0,1.5-.56,3.7-2.18,3.7H11.88c-1.63,0-3.88-2.2-3.88-3.7V23.11c0-1.5,2.25-1.77,3.88-1.77H32v7.21a4,4,0,1,0,8,0V21.34H66v7.21c0,2.26,2.56,4.08,5,4.08s5-1.82,5-4.08V21.34h26v7.21a4,4,0,1,0,8,0V21.34h19.82c1.62,0,2.18.28,2.18,1.77Z"/><rect class="cls-1" x="32" y="49.34" width="16" height="12"/><rect class="cls-1" x="32" y="69.34" width="16" height="12"/><rect class="cls-1" x="32" y="89.34" width="16" height="12"/><rect class="cls-1" x="62" y="89.34" width="18" height="12"/><rect class="cls-1" x="62" y="69.34" width="18" height="12"/><rect class="cls-1" x="62" y="49.34" width="18" height="12"/><rect class="cls-1" x="92" y="89.34" width="18" height="12"/><rect class="cls-1" x="92" y="69.34" width="18" height="12"/><rect class="cls-1" x="92" y="49.34" width="18" height="12"/></g></g></g></svg>